<svg width="136" height="115" viewBox="0 0 136 115" fill="none" xmlns="http://www.w3.org/2000/svg">
<g clip-path="url(#clip0_144_22)">
<path d="M113.182 81.1558L116.221 86.4149L127.586 106.054L132.897 115.221H99.789L99.5914 114.88L83.1269 86.4149H49.624V115.24H21.0181V57.6131H92.6716C94.5496 57.6131 96.4092 57.2405 98.1442 56.5167C99.8792 55.7928 101.456 54.7319 102.784 53.3944C104.112 52.057 105.165 50.4692 105.884 48.7217C106.602 46.9742 106.972 45.1013 106.972 43.2098C106.972 41.3183 106.602 39.4454 105.884 37.6979C105.165 35.9504 104.112 34.3626 102.784 33.0252C101.456 31.6877 99.8792 30.6267 98.1442 29.9029C96.4092 29.1791 94.5496 28.8065 92.6716 28.8065H16.6715L0 0H92.6716C102.206 0.00250057 111.468 3.20381 118.995 9.09839C126.522 14.993 131.885 23.2449 134.236 32.5511C136.588 41.8573 135.795 51.6874 131.983 60.489C128.17 69.2907 121.555 76.5624 113.182 81.1558Z" fill="#00F998"/>
</g>
<defs>
<clipPath id="clip0_144_22">
<rect width="135.555" height="114.4" fill="white"/>
</clipPath>
</defs>
</svg>
